<?xml version="1.0" encoding="utf-8"?>
<!-- Generator: Adobe Illustrator 25.4.1, SVG Export Plug-In . SVG Version: 6.00 Build 0)  -->
<svg version="1.1" id="Capa_1" xmlns="http://www.w3.org/2000/svg" xmlns:xlink="http://www.w3.org/1999/xlink" x="0px" y="0px"
	 viewBox="0 0 18 20" style="enable-background:new 0 0 18 20;" xml:space="preserve">
<style type="text/css">
	.st0{fill:#FFFFFF;}
</style>
<g id="Sy7XSg.tif">
	<g>
		<path class="st0" d="M1.3,10c0-1.9,0-3.8,0-5.7c0-0.9,0.6-1.7,1.5-1.9c0.1,0,0.3-0.1,0.4-0.1c1.9,0,3.8,0,5.7,0
			c0.3,0,0.5,0.1,0.6,0.4c0.1,0.2,0.1,0.5-0.1,0.7C9.4,3.5,9.2,3.6,9,3.6c-0.1,0-0.2,0-0.2,0c-1.8,0-3.6,0-5.5,0c-0.1,0-0.2,0-0.3,0
			c-0.3,0-0.5,0.3-0.5,0.5c0,0.1,0,0.1,0,0.2c0,3.8,0,7.5,0,11.3c0,0.1,0,0.3,0.1,0.4c0.1,0.3,0.4,0.4,0.7,0.4c1,0,2,0,3,0
			c0.9,0,1.7,0,2.6,0c0.3,0,0.6,0.1,0.7,0.4c0.2,0.4-0.1,0.9-0.6,0.9c-0.9,0-1.9,0-2.8,0c-1,0-2,0-3.1,0c-0.9,0-1.7-0.7-1.8-1.6
			c0-0.1,0-0.3,0-0.4C1.3,13.8,1.3,11.9,1.3,10z"/>
		<path class="st0" d="M14.5,9.3c0,0-0.1-0.1-0.1-0.1c-0.9-0.8-1.7-1.7-2.6-2.6c-0.3-0.3-0.3-0.6-0.1-0.9c0.2-0.3,0.6-0.3,0.9-0.1
			c0.1,0,0.1,0.1,0.2,0.1C14,7,15.2,8.2,16.5,9.5c0.4,0.4,0.4,0.7,0,1.1c-1.3,1.2-2.5,2.5-3.8,3.7c-0.3,0.3-0.6,0.3-0.9,0.1
			c-0.3-0.2-0.3-0.6-0.1-0.9c0.1-0.1,0.1-0.1,0.2-0.2c0.8-0.8,1.7-1.7,2.5-2.5c0,0,0.1-0.1,0.1-0.1c-0.1,0-0.1,0-0.2,0
			c-2.4,0-4.7,0-7.1,0c-0.1,0-0.2,0-0.3,0c-0.3-0.1-0.5-0.4-0.5-0.7c0-0.3,0.3-0.6,0.6-0.6c0.1,0,0.1,0,0.2,0c2.4,0,4.7,0,7.1,0
			C14.3,9.4,14.4,9.4,14.5,9.3C14.5,9.3,14.5,9.3,14.5,9.3z"/>
	</g>
</g>
</svg>
