<?xml version="1.0" encoding="utf-8"?>
<!-- Generator: Adobe Illustrator 25.4.1, SVG Export Plug-In . SVG Version: 6.00 Build 0)  -->
<svg version="1.1" id="Capa_1" xmlns="http://www.w3.org/2000/svg" xmlns:xlink="http://www.w3.org/1999/xlink" x="0px" y="0px"
	 viewBox="0 0 18 20" style="enable-background:new 0 0 18 20;" xml:space="preserve">
<style type="text/css">
	.st0{fill:#FFFFFF;}
</style>
<g>
	<path class="st0" d="M16.8,10c0,1.9,0,3.8,0,5.7c0,0.9-0.6,1.7-1.5,1.9c-0.1,0-0.3,0.1-0.4,0.1c-1.9,0-3.8,0-5.7,0
		c-0.3,0-0.5-0.1-0.6-0.4c-0.1-0.2-0.1-0.5,0.1-0.7c0-0.1,0.2-0.2,0.4-0.2c0.1,0,0.2,0,0.2,0c1.8,0,3.6,0,5.5,0c0.1,0,0.2,0,0.3,0
		c0.3,0,0.5-0.3,0.5-0.5c0-0.1,0-0.1,0-0.2c0-3.8,0-7.5,0-11.3c0-0.1,0-0.3-0.1-0.4c-0.1-0.3-0.4-0.4-0.7-0.4c-1,0-2,0-3,0
		c-0.9,0-1.7,0-2.6,0c-0.3,0-0.6-0.1-0.7-0.4C8.2,2.8,8.6,2.3,9.1,2.3c0.9,0,1.9,0,2.8,0c1,0,2,0,3.1,0c0.9,0,1.7,0.7,1.8,1.6
		c0,0.1,0,0.3,0,0.4C16.8,6.2,16.8,8.1,16.8,10z"/>
	<path class="st0" d="M9.3,10.7c-0.1-0.1-0.2-0.1-0.2-0.1c-2.4,0-4.7,0-7.1,0c-0.1,0-0.1,0-0.2,0c-0.3,0-0.6-0.3-0.6-0.6
		s0.2-0.6,0.5-0.7c0.1,0,0.2,0,0.3,0c2.4,0,4.7,0,7.1,0c0.1,0,0.1,0,0.2,0L9.2,9.2C8.4,8.4,7.5,7.5,6.7,6.7C6.6,6.6,6.6,6.6,6.5,6.5
		C6.3,6.2,6.3,5.8,6.6,5.6c0.3-0.2,0.6-0.2,0.9,0.1c1.3,1.2,2.5,2.5,3.8,3.7c0.4,0.4,0.4,0.7,0,1.1C10,11.8,8.8,13,7.6,14.3
		c-0.1,0-0.1,0.1-0.2,0.1c-0.3,0.2-0.7,0.2-0.9-0.1c-0.2-0.3-0.2-0.6,0.1-0.9c0.9-0.9,1.7-1.8,2.6-2.6L9.3,10.7L9.3,10.7z"/>
</g>
</svg>
