<?xml version="1.0" encoding="utf-8"?>
<!-- Generator: Adobe Illustrator 25.4.1, SVG Export Plug-In . SVG Version: 6.00 Build 0)  -->
<svg version="1.1" id="Capa_1" xmlns="http://www.w3.org/2000/svg" xmlns:xlink="http://www.w3.org/1999/xlink" x="0px" y="0px"
	 viewBox="0 0 120 120" style="enable-background:new 0 0 120 120;" xml:space="preserve">
<style type="text/css">
	.st0{fill-rule:evenodd;clip-rule:evenodd;fill:#1F9E00;}
</style>
<path class="st0" d="M117,60c0,31.5-25.5,57-57,57S3,91.5,3,60S28.5,3,60,3S117,28.5,117,60z M120,60c0,33.1-26.9,60-60,60
	S0,93.1,0,60S26.9,0,60,0S120,26.9,120,60z M57.6,76.9l29.2-28l-5.5-5.8L54.4,68.8L39.3,57.9l-4.7,6.5l17.8,12.9l2.7,2L57.6,76.9z"
	/>
</svg>
